<svg width="20" height="20" viewBox="0 0 20 20" fill="none" xmlns="http://www.w3.org/2000/svg">
<path d="M9.68899 9.91583L2.38127 17.2235C2.14929 17.4555 2.14929 17.8317 2.38127 18.0637C2.61327 18.2957 2.98941 18.2957 3.22141 18.0637L10.8936 10.3915C11.0241 10.261 11.0812 10.0848 11.0648 9.91443C11.0804 9.74478 11.0232 9.56977 10.8933 9.43991L3.22115 1.76775C2.98917 1.53575 2.61303 1.53575 2.38103 1.76775C2.14903 1.99973 2.14903 2.37587 2.38103 2.60787L9.68899 9.91583Z" fill="#3D3D3D"/>
<path d="M16.4116 9.91583L9.10393 17.2235C8.87193 17.4555 8.87193 17.8317 9.10393 18.0637C9.33593 18.2957 9.71207 18.2957 9.94405 18.0637L17.6162 10.3915C17.7467 10.261 17.8038 10.0849 17.7875 9.91443C17.803 9.7448 17.7458 9.56977 17.616 9.43991L9.94381 1.76775C9.71181 1.53575 9.33567 1.53575 9.10367 1.76775C8.87169 1.99973 8.87169 2.37587 9.10367 2.60787L16.4116 9.91583Z" fill="#3D3D3D"/>
</svg>
